# xmcd
#
# Track frame offsets: 
#        150
#        18404
#        32552
#        60933
#        78695
#        98319
#        112437
#        146156
#        166479
#        180599
#        211553
#        231827
#
# Disc length: 3376 seconds
#
# Revision: 0
# Processed by: cddbd v1.5.2PL0 Copyright (c) Steve Scherf et al.
# Submitted via: ExactAudioCopyFreeDBPlugin 1.0
#
DISCID=970d2e0c
DTITLE=Ervin Charles - Greyhound Blues
DYEAR=2000
DGENRE=Blues
TTITLE0=So Mean To Me
TTITLE1=All I Want Is You
TTITLE2=Greyhound Blues
TTITLE3=Sweet Woman's Love
TTITLE4=Jumpin' With Ervin
TTITLE5=My Love Is Real
TTITLE6=Everyday I Have The Blues
TTITLE7=Gulf Coast Boogie
TTITLE8=Some Where Down The Line
TTITLE9=You Don't Have To Go
TTITLE10=You Better Change Your Ways
TTITLE11=Bonus
EXTD=
EXTT0=
EXTT1=
EXTT2=
EXTT3=
EXTT4=
EXTT5=
EXTT6=
EXTT7=
EXTT8=
EXTT9=
EXTT10=
EXTT11=
PLAYORDER=
